<svg width="6" height="8" viewBox="0 0 6 8" fill="none" xmlns="http://www.w3.org/2000/svg">
<path opacity="0.5" d="M2.51099 7.68386C2.51099 7.74655 2.54292 7.78834 2.59081 7.78834H3.14162C3.18952 7.78834 3.22145 7.74655 3.22145 7.68386V0.788195C3.22145 0.725507 3.18952 0.683716 3.14162 0.683716H2.59081C2.54292 0.683716 2.51099 0.725507 2.51099 0.788195V7.68386Z" fill="white" fill-opacity="0.4"/>
<path opacity="0.5" d="M4.64233 6.99428C4.64233 7.04443 4.67426 7.07786 4.72216 7.07786H5.27297C5.32087 7.07786 5.3528 7.04443 5.3528 6.99428V1.47775C5.3528 1.4276 5.32087 1.39417 5.27297 1.39417H4.72216C4.67426 1.39417 4.64233 1.4276 4.64233 1.47775V6.99428Z" fill="white" fill-opacity="0.4"/>
<path opacity="0.5" d="M0.379639 6.99428C0.379639 7.04443 0.41157 7.07786 0.459466 7.07786H1.01027C1.05817 7.07786 1.0901 7.04443 1.0901 6.99428V1.47775C1.0901 1.4276 1.05817 1.39417 1.01027 1.39417H0.459466C0.41157 1.39417 0.379639 1.4276 0.379639 1.47775V6.99428Z" fill="white" fill-opacity="0.4"/>
</svg>
